<svg width="13" height="11" viewBox="0 0 13 11" fill="none" xmlns="http://www.w3.org/2000/svg">
<path d="M8.30289 4.13359L8.30273 4.13373C8.10713 4.29697 8.07506 4.56964 8.23092 4.77259L8.23169 4.77357C8.26606 4.8172 8.30493 4.85347 8.34068 4.8855L9.93348 6.38286C10.0546 6.4967 10.1819 6.56888 10.3217 6.56371C10.4612 6.55856 10.5838 6.47751 10.698 6.35597C10.8681 6.17501 11.0383 5.99418 11.2084 5.81339C11.5487 5.45185 11.8887 5.09047 12.228 4.72845L12.2282 4.7283C12.3575 4.58974 12.3984 4.41406 12.3548 4.25791C12.3112 4.10143 12.1854 3.97448 12.0039 3.92977L12.0037 3.92974C11.8094 3.88216 11.6568 3.96272 11.5409 4.08594C11.4502 4.18253 11.3593 4.27901 11.2684 4.37546C11.1027 4.55146 10.9369 4.72738 10.7719 4.90374L8.30289 4.13359ZM8.30289 4.13359C8.39823 4.05438 8.50804 4.0113 8.62339 4.01622C8.73828 4.02112 8.84636 4.0731 8.94001 4.16101C9.18836 4.39221 9.43527 4.62611 9.68194 4.85978C9.72953 4.90486 9.77711 4.94994 9.82469 4.99498C9.8231 4.98249 9.82151 4.97003 9.81994 4.95759C9.79809 4.78555 9.77684 4.61813 9.74131 4.45111L9.74126 4.45084C9.28775 2.28972 7.13707 0.848076 4.96782 1.2459L4.96779 1.24591C2.8026 1.64235 1.311 3.63485 1.57939 5.80605C1.76496 7.30626 2.56355 8.38776 3.91109 9.06953L3.91116 9.06957C4.50279 9.36952 5.14158 9.48625 5.80995 9.47847L5.81013 9.47846M8.30289 4.13359L5.81013 9.47846M6.52176 0.301677L6.52173 0.301673C3.80796 -0.152457 1.18603 1.68543 0.686655 4.39378C0.165576 7.204 2.04736 9.8901 4.86934 10.3558L4.86936 10.3558C5.13743 10.4 5.41331 10.4098 5.67958 10.4192C5.72022 10.4206 5.76064 10.4221 5.80077 10.4236L6.52176 0.301677ZM6.52176 0.301677C8.75945 0.676788 10.4802 2.47575 10.7519 4.72546L6.52176 0.301677ZM5.81013 9.47846C6.09483 9.47565 6.3107 9.67758 6.3106 9.94769M5.81013 9.47846L6.3106 9.94769M6.3106 9.94769C6.31071 10.2224 6.09005 10.4349 5.80081 10.4236L6.3106 9.94769ZM12.1551 4.66007C12.369 4.43077 12.2753 4.09962 11.9799 4.02687L10.002 6.31C10.228 6.52244 10.4111 6.51515 10.6252 6.28748C10.7953 6.10645 10.9655 5.92561 11.1356 5.74483C11.4759 5.38331 11.8158 5.02204 12.1551 4.66007ZM4.88562 10.2571L4.88562 10.2571L4.88562 10.2571Z" fill="#024EE2" stroke="#024EE2" stroke-width="0.2"/>
</svg>
