<svg width="27" height="22" viewBox="0 0 27 22" fill="none" xmlns="http://www.w3.org/2000/svg">
<path d="M26.7304 14.3964C26.6101 14.8664 26.5424 15.3551 26.3582 15.7988C25.4897 17.908 23.9106 19.0885 21.6322 19.3104C21.2111 19.3517 20.7825 19.3404 20.3539 19.3442C17.0152 19.348 13.6766 19.348 10.3379 19.3405C10.1386 19.3405 9.99953 19.4006 9.86042 19.5397C9.16111 20.2541 8.45052 20.9571 7.74368 21.664C7.29628 22.1114 6.87894 22.1114 6.43153 21.6677C5.63823 20.8744 4.84868 20.0811 4.04786 19.2916C3.94259 19.1863 3.79972 19.0961 3.66061 19.0509C1.52131 18.314 0.0437304 16.3364 0.021172 14.0768C-0.0051462 11.1893 -0.00890594 8.30185 0.021172 5.41813C0.0474902 2.83142 1.80329 0.70717 4.33736 0.13193C4.73213 0.0416962 5.1457 0.00785856 5.55175 0.00785856C10.759 0.000339074 15.97 -0.00342075 21.1772 0.00409873C23.8354 0.00785847 25.9972 1.73734 26.6026 4.32404C26.6514 4.53459 26.6853 4.74889 26.7266 4.95944C26.7304 8.10258 26.7304 11.2495 26.7304 14.3964ZM7.09325 20.1037C7.74745 19.4495 8.3866 18.8254 9.00696 18.1787C9.28894 17.8854 9.59348 17.7689 9.99953 17.7689C13.6954 17.7802 17.3912 17.7764 21.087 17.7726C23.4707 17.7726 25.1663 16.077 25.1663 13.7008C25.1663 10.9863 25.1701 8.27553 25.1663 5.561C25.1626 3.27883 23.4556 1.56063 21.181 1.55687C15.9738 1.55311 10.7628 1.54935 5.55551 1.55687C3.30719 1.56063 1.59275 3.27507 1.58523 5.51964C1.57771 8.30937 1.57771 11.1029 1.58523 13.8926C1.58899 15.6409 2.68683 17.0959 4.3524 17.6185C4.58174 17.6899 4.81485 17.829 4.98779 17.9945C5.69087 18.6863 6.37514 19.3893 7.09325 20.1037Z" fill="black"/>
<circle cx="7.61538" cy="9.61539" r="1.61538" fill="black"/>
<circle cx="13.0002" cy="9.61539" r="1.61538" fill="black"/>
<circle cx="18.3844" cy="9.61539" r="1.61538" fill="black"/>
</svg>
