<svg width="35" height="34" viewBox="0 0 35 34" fill="none" xmlns="http://www.w3.org/2000/svg">
<path d="M35 11.4296C34.8569 12.1407 34.7515 12.8597 34.5556 13.5549C33.9456 15.7671 32.8234 17.7028 31.5355 19.5436C29.4568 22.5301 27.0091 25.1689 24.4484 27.6971C22.43 29.6881 20.3664 31.6238 18.3178 33.5753C17.7153 34.152 17.2558 34.1362 16.6383 33.5595C13.2868 30.4387 9.95032 27.31 6.88501 23.8653C4.94942 21.6847 3.12681 19.4014 1.73349 16.7863C0.859837 15.143 0.151871 13.4285 0.0313676 11.5402C-0.247297 7.18697 1.32679 3.74227 4.91177 1.48267C8.77542 -0.942838 13.7236 -0.326585 17.1504 2.84949C17.2483 2.9443 17.3538 3.03911 17.4517 3.12601C17.9713 2.71518 18.4684 2.28854 18.9881 1.91721C22.5957 -0.642612 27.3706 -0.61891 30.8351 2.00412C33.2452 3.82918 34.5858 6.34159 34.9322 9.43866C34.9473 9.55717 34.9699 9.66778 34.9925 9.78629C35 10.3314 35 10.8845 35 11.4296ZM17.4667 31.4579C17.5195 31.4263 17.5571 31.4105 17.5797 31.3947C20.8559 28.3292 24.117 25.2479 27.0769 21.8348C28.8016 19.8518 30.4133 17.7818 31.6184 15.3958C32.5297 13.5944 33.1096 11.722 32.8987 9.62828C32.4694 5.46462 29.148 2.23324 25.1564 2.18583C22.4676 2.15423 20.2157 3.22872 18.3931 5.2987C17.7831 5.98606 17.1956 5.99396 16.6006 5.2987C15.7947 4.35852 14.8533 3.63166 13.7688 3.08651C10.4173 1.40367 6.53857 2.08312 4.14356 4.89577C1.79374 7.66891 1.45483 10.8292 2.81802 14.2107C3.74439 16.5019 5.14525 18.477 6.6666 20.3574C9.21224 23.5177 12.0817 26.3382 14.9889 29.1193C15.8098 29.9014 16.6383 30.6836 17.4667 31.4579Z" fill="black"/>
</svg>
