<svg width="17" height="16" viewBox="0 0 17 16" fill="none" xmlns="http://www.w3.org/2000/svg">
<path d="M17 5.37865C16.9305 5.71327 16.8793 6.0516 16.7842 6.37879C16.4879 7.41982 15.9428 8.33072 15.3173 9.19701C14.3076 10.6024 13.1187 11.8442 11.8749 13.034C10.8946 13.9709 9.89223 14.8818 8.89721 15.8001C8.60456 16.0715 8.38141 16.0641 8.08144 15.7927C6.45357 14.3241 4.83301 12.8518 3.34415 11.2307C2.40401 10.2046 1.51874 9.13008 0.84198 7.89944C0.417635 7.1261 0.073766 6.3193 0.0152357 5.4307C-0.120116 3.3821 0.64444 1.76107 2.38572 0.697728C4.26234 -0.443689 6.66575 -0.153687 8.3302 1.34094C8.37776 1.38555 8.42897 1.43017 8.47652 1.47107C8.72894 1.27773 8.97038 1.07696 9.22279 0.902217C10.975 -0.302405 13.2943 -0.291252 14.977 0.943114C16.1477 1.80197 16.7988 2.98428 16.9671 4.44172C16.9744 4.49749 16.9854 4.54955 16.9963 4.60531C17 4.86185 17 5.12211 17 5.37865ZM8.48384 14.8037C8.50945 14.7888 8.52774 14.7814 8.53871 14.774C10.13 13.3314 11.714 11.8814 13.1516 10.2752C13.9893 9.34201 14.7722 8.3679 15.3575 7.24507C15.8001 6.39738 16.0818 5.51622 15.9794 4.53095C15.7709 2.57158 14.1576 1.05094 12.2188 1.02863C10.9128 1.01376 9.81906 1.5194 8.93379 2.49351C8.63748 2.81697 8.35215 2.82069 8.06315 2.49351C7.67173 2.05107 7.21447 1.70902 6.68769 1.45248C5.05982 0.660549 3.17587 0.980294 2.01258 2.30389C0.871244 3.6089 0.706629 5.09609 1.36875 6.68738C1.81871 7.76559 2.49912 8.69508 3.23807 9.57996C4.47452 11.0671 5.86827 12.3945 7.28031 13.7032C7.67905 14.0713 8.08145 14.4393 8.48384 14.8037Z" fill="#AFAFAF"/>
</svg>
