<svg width="23" height="22" viewBox="0 0 23 22" fill="none" xmlns="http://www.w3.org/2000/svg">
<path d="M23 7.39565C22.906 7.85575 22.8367 8.32096 22.708 8.77083C22.3071 10.2022 21.5697 11.4547 20.7233 12.6459C19.3573 14.5783 17.7488 16.2858 16.0661 17.9217C14.7397 19.21 13.3836 20.4625 12.0374 21.7252C11.6415 22.0984 11.3396 22.0881 10.9337 21.7149C8.7313 19.6956 6.53878 17.6712 4.52444 15.4423C3.25248 14.0313 2.05476 12.5539 1.13915 10.8617C0.565036 9.79838 0.0998011 8.68904 0.020613 7.46722C-0.162509 4.65039 0.87189 2.42147 3.22773 0.959376C5.7667 -0.610072 9.01836 -0.21132 11.2703 1.84379C11.3346 1.90513 11.4039 1.96648 11.4682 2.02272C11.8097 1.75688 12.1364 1.48082 12.4779 1.24055C14.8486 -0.415807 17.9864 -0.400471 20.2631 1.29678C21.8468 2.4777 22.7278 4.10338 22.9555 6.10737C22.9654 6.18405 22.9802 6.25562 22.9951 6.33231C23 6.68505 23 7.0429 23 7.39565ZM11.4781 20.3551C11.5128 20.3346 11.5375 20.3244 11.5524 20.3142C13.7053 18.3307 15.8483 16.3369 17.7934 14.1284C18.9268 12.8453 19.9859 11.5059 20.7778 9.96198C21.3766 8.79639 21.7577 7.5848 21.6192 6.23006C21.3371 3.53593 19.1544 1.44504 16.5313 1.41436C14.7644 1.39391 13.2846 2.08917 12.0869 3.42857C11.686 3.87334 11.3 3.87845 10.909 3.42857C10.3794 2.82022 9.76075 2.3499 9.04805 1.99715C6.84564 0.908254 4.29677 1.3479 2.72291 3.16785C1.17874 4.96224 0.956028 7.00712 1.85184 9.19514C2.4606 10.6777 3.38116 11.9557 4.38091 13.1724C6.05376 15.2173 7.93942 17.0424 9.84983 18.8419C10.3893 19.348 10.9337 19.8541 11.4781 20.3551Z" fill="black"/>
</svg>
