<svg width="23" height="23" viewBox="0 0 23 23" fill="none" xmlns="http://www.w3.org/2000/svg">
<path d="M16.536 15.423C16.6104 15.4708 16.706 15.5133 16.775 15.577C18.7405 17.5364 20.7059 19.5012 22.6713 21.4659C22.9369 21.7314 23.075 22.0288 22.9581 22.4005C22.7828 22.974 22.0923 23.1864 21.6195 22.8147C21.5452 22.7563 21.4761 22.6819 21.4071 22.6129C19.4629 20.6694 17.5187 18.7259 15.5745 16.7771C15.5055 16.7081 15.4683 16.6125 15.4205 16.5381C11.2187 20.0109 5.29591 19.1985 2.11405 15.2956C-0.929695 11.5626 -0.658787 6.14632 2.74617 2.74786C6.16176 -0.661209 11.5799 -0.926713 15.293 2.11065C19.192 5.30732 20.0047 11.2174 16.536 15.423ZM1.69972 9.36954C1.69441 13.5964 5.14186 17.0426 9.37017 17.0426C13.5879 17.0426 17.0247 13.6123 17.0353 9.39609C17.0459 5.16926 13.6091 1.71771 9.3808 1.7124C5.15249 1.70178 1.70503 5.14271 1.69972 9.36954Z" fill="black"/>
</svg>
