<svg width="22" height="22" viewBox="0 0 22 22" fill="none" xmlns="http://www.w3.org/2000/svg">
<path d="M11.5235 0.0213859C12.0688 0.197824 12.4537 0.582781 12.8492 0.973084C15.6717 3.80679 18.5048 6.62981 21.3273 9.46352C21.5197 9.65599 21.7122 9.8859 21.8191 10.1318C22.3964 11.5273 21.5357 12.9495 20.039 13.0083C19.9267 13.0137 19.8091 13.0083 19.6595 13.0083C19.6595 13.0992 19.6595 13.1848 19.6595 13.265C19.6595 15.3715 19.6648 17.4781 19.6595 19.59C19.6541 20.7449 18.9218 21.6752 17.8206 21.9318C17.6335 21.9746 17.4357 21.996 17.2486 21.996C16.1154 22.0013 14.9821 22.0013 13.8488 21.996C13.3891 21.996 13.1272 21.734 13.1272 21.2742C13.1272 19.6167 13.1112 17.9593 13.1325 16.3072C13.1432 15.58 12.6461 15.0507 11.9084 15.0775C11.299 15.0989 10.6896 15.0775 10.0802 15.0828C9.33185 15.0828 8.89352 15.5212 8.89352 16.2751C8.89352 17.9165 8.89352 19.5579 8.89352 21.1993C8.89352 21.7607 8.65297 21.996 8.09703 21.996C7.00654 21.996 5.91605 21.996 4.8309 21.996C3.3876 21.996 2.3666 20.9748 2.3666 19.5312C2.36126 17.4514 2.3666 15.3715 2.3666 13.2917C2.3666 13.2061 2.3666 13.1206 2.3666 13.0244C2.12071 13.003 1.8855 13.003 1.65565 12.9602C0.891233 12.8105 0.362023 12.356 0.116127 11.6182C-0.129768 10.8911 0.0199076 10.2174 0.517044 9.62926C0.58119 9.55441 0.656028 9.4849 0.72552 9.41005C3.52659 6.60842 6.333 3.80679 9.13407 0.999817C9.54033 0.593474 9.93056 0.181785 10.5025 0C10.834 0.0213865 11.1814 0.0213859 11.5235 0.0213859ZM14.4101 20.7181C14.5117 20.7181 14.5865 20.7181 14.6614 20.7181C15.4846 20.7181 16.3131 20.6968 17.1364 20.7235C17.842 20.7502 18.3819 20.2476 18.3712 19.4831C18.3445 17.152 18.3605 14.8208 18.3605 12.495C18.3605 11.9818 18.6117 11.7358 19.1303 11.7305C19.4243 11.7305 19.7183 11.7358 20.0123 11.7305C20.3383 11.7251 20.6003 11.5113 20.6911 11.2012C20.7981 10.8376 20.6217 10.5863 20.3811 10.3457C17.4678 7.43715 14.5598 4.52859 11.6518 1.62002C11.1921 1.16022 10.8179 1.16022 10.3635 1.61468C7.77096 4.20244 5.17836 6.79555 2.58043 9.39401C2.22227 9.75223 1.85878 10.1105 1.50062 10.474C1.27611 10.7093 1.21731 10.9873 1.35095 11.2867C1.47924 11.5754 1.71445 11.7251 2.02984 11.7251C2.29711 11.7251 2.55904 11.7251 2.82632 11.7251C3.41433 11.7251 3.64954 11.955 3.64954 12.5432C3.64954 14.8796 3.64954 17.2161 3.64954 19.5526C3.64954 20.2583 4.09856 20.7128 4.80417 20.7128C5.66481 20.7128 6.52544 20.7128 7.38608 20.7128C7.45557 20.7128 7.52506 20.7075 7.60524 20.7021C7.60524 20.5952 7.60524 20.515 7.60524 20.4294C7.60524 18.9751 7.59455 17.5209 7.61593 16.0612C7.63197 14.9171 8.55141 13.9119 9.69535 13.8371C10.572 13.7782 11.454 13.8264 12.3361 13.8264C12.4002 13.8264 12.4643 13.8424 12.5285 13.8531C13.6564 14.099 14.4048 15.0293 14.4155 16.2003C14.4262 17.6118 14.4155 19.0233 14.4155 20.4348C14.4101 20.5257 14.4101 20.6112 14.4101 20.7181Z" fill="black"/>
</svg>
