<svg width="34" height="20" viewBox="0 0 34 20" fill="none" xmlns="http://www.w3.org/2000/svg">
<path d="M14.6655 9.99839C11.8629 7.59871 9.09584 5.22272 6.25769 2.79341C6.23399 3.06597 6.21029 3.24965 6.20437 3.43925C6.19252 3.78291 6.21622 4.12065 6.18067 4.4643C6.14511 4.86722 5.83108 5.12792 5.4341 5.122C5.04896 5.11607 4.72308 4.83759 4.7053 4.44061C4.68753 3.91919 4.6579 3.38593 4.729 2.87044C4.94824 1.2825 6.18067 0.263376 7.83378 0.263376C14.4403 0.263376 21.0528 0.263376 27.6593 0.263376C28.7081 0.263376 29.7568 0.25745 30.8056 0.263376C32.6187 0.269301 33.8985 1.52543 33.9044 3.33853C33.9163 7.77646 33.9163 12.2144 33.9044 16.6464C33.8985 18.4595 32.6187 19.7275 30.8056 19.7275C23.1325 19.7334 15.4654 19.7334 7.79231 19.7275C5.97329 19.7275 4.68753 18.4358 4.6816 16.6168C4.6816 16.285 4.66975 15.9591 4.68753 15.6273C4.7053 15.1829 5.00749 14.8807 5.41632 14.8748C5.83701 14.8689 6.15104 15.1473 6.17474 15.5977C6.19844 16.0954 6.18067 16.5931 6.18067 17.0908C6.22214 17.1086 6.25769 17.1323 6.29917 17.15C9.08991 14.78 11.8629 12.404 14.6655 9.99839ZM7.40717 1.78614C7.5553 1.92242 7.63233 1.99944 7.71528 2.07055C11.3652 5.1931 15.0151 8.30973 18.665 11.4323C19.1567 11.853 19.4767 11.847 19.9803 11.4204C23.6302 8.29788 27.2801 5.17532 30.9241 2.05277C31.0011 1.98167 31.0781 1.91057 31.2085 1.78614C23.2629 1.78614 15.3883 1.78614 7.40717 1.78614ZM15.8268 10.976C13.0183 13.3876 10.2394 15.7695 7.3894 18.2106C15.3883 18.2106 23.2629 18.2106 31.2381 18.2106C28.3822 15.7636 25.6033 13.3817 22.8303 10.9997C22.7829 11.0175 22.7533 11.0175 22.7355 11.0353C22.0897 11.5923 21.4498 12.1551 20.798 12.7062C19.8618 13.5002 18.742 13.4942 17.8117 12.6943C17.16 12.1314 16.5082 11.5686 15.8268 10.976ZM32.3343 17.1678C32.4942 16.6642 32.4646 3.1904 32.3106 2.85267C29.5317 5.23458 26.7646 7.60463 23.968 9.99839C26.7706 12.404 29.5376 14.7741 32.3343 17.1678Z" fill="black"/>
<path d="M4.29657 12.6291C3.24782 12.6291 2.19907 12.6291 1.15032 12.6291C0.996264 12.6291 0.830361 12.6172 0.688157 12.5639C0.356349 12.4395 0.19637 12.1788 0.22007 11.8173C0.243771 11.4737 0.433376 11.2485 0.765184 11.1656C0.913313 11.1241 1.07922 11.1241 1.23327 11.1182C3.29522 11.1182 5.35125 11.1182 7.4132 11.1182C7.51985 11.1182 7.63243 11.1182 7.73908 11.13C8.18347 11.1893 8.45603 11.5033 8.43825 11.9181C8.42048 12.3091 8.12422 12.5995 7.69761 12.6291C7.46653 12.6469 7.23545 12.635 7.00437 12.635C6.09782 12.6291 5.1972 12.6291 4.29657 12.6291Z" fill="black"/>
<path d="M5.43354 7.3736C6.13863 7.3736 6.84965 7.36767 7.55474 7.3736C8.10578 7.37953 8.44352 7.66986 8.43759 8.12609C8.43759 8.58826 8.10578 8.87859 7.54882 8.87859C6.14456 8.88451 4.74622 8.88451 3.34196 8.87859C2.79685 8.87859 2.44727 8.57048 2.44727 8.12017C2.44727 7.66986 2.80277 7.3736 3.34196 7.36768C4.04113 7.36768 4.7403 7.3736 5.43354 7.3736Z" fill="black"/>
</svg>
