<svg width="26" height="26" viewBox="0 0 26 26" fill="none" xmlns="http://www.w3.org/2000/svg">
<path d="M6.33103 21.7866C6.31523 21.9288 6.3521 22.0131 6.47326 22.0974M6.33103 21.7866L6.43039 21.7979C6.45247 21.6043 6.47061 21.4126 6.4886 21.2224C6.5272 20.8145 6.56515 20.4134 6.64003 20.014L6.64008 20.0137C6.70029 19.6876 6.85192 19.3619 7.02374 19.06L7.02397 19.0596C7.43331 18.3324 7.61568 17.5636 7.41323 16.7374L7.41319 16.7372C7.19899 15.8694 6.63428 15.2937 5.76673 15.0631L5.76588 15.0629C5.37056 14.9615 5.04685 14.7861 4.78324 14.4927C4.64475 14.3358 4.4904 14.1868 4.3406 14.0422C4.31613 14.0185 4.29178 13.995 4.26764 13.9716C3.60619 13.3159 2.82206 13.0888 1.91722 13.3301L1.91722 13.33L1.91552 13.3305C1.91411 13.3309 1.91271 13.3313 1.9113 13.3317V13.3308V13.3284V13.326V13.3236V13.3213V13.3189V13.3165V13.3141V13.3117V13.3094V13.307V13.3046V13.3022V13.2999V13.2975V13.2951V13.2927V13.2904V13.288V13.2856V13.2832V13.2808V13.2785V13.2761V13.2737V13.2713V13.269V13.2666V13.2642V13.2618V13.2594V13.2571V13.2547V13.2523V13.2499V13.2475V13.2452V13.2428V13.2404V13.238V13.2357V13.2333V13.2309V13.2285V13.2261V13.2238V13.2214V13.219V13.2166V13.2142V13.2119V13.2095V13.2071V13.2047V13.2024V13.2V13.1976V13.1952V13.1928V13.1905V13.1881V13.1857V13.1833V13.1809V13.1786V13.1762V13.1738V13.1714V13.169V13.1667V13.1643V13.1619V13.1595V13.1571V13.1548V13.1524V13.15V13.1476V13.1452V13.1429V13.1405V13.1381V13.1357V13.1333V13.131V13.1286V13.1262V13.1238V13.1214V13.1191V13.1167V13.1143V13.1119V13.1095V13.1071V13.1048V13.1024V13.1V13.0976V13.0952V13.0929V13.0905V13.0881V13.0857V13.0833V13.0809V13.0786V13.0762V13.0738V13.0714V13.069V13.0667V13.0643V13.0619V13.0595V13.0571V13.0547V13.0524V13.05V13.0476V13.0452V13.0428V13.0404V13.0381V13.0357V13.0333V13.0309V13.0285V13.0261V13.0238V13.0214V13.019V13.0166V13.0142V13.0118V13.0095V13.0071V13.0047V13.0023V12.9999V12.9975V12.9951V12.9928V12.9904V12.988V12.9856V12.9832V12.9808V12.9784V12.9761V12.9737V12.9713V12.9689V12.9665V12.9641V12.9617V12.9594V12.957V12.9546V12.9522V12.9498V12.9474V12.945V12.9427V12.9403V12.9379V12.9355V12.9331V12.9307V12.9283V12.9259V12.9236V12.9212V12.9188V12.9164V12.914V12.9116V12.9092V12.9068V12.9044V12.9021V12.8997V12.8973V12.8949V12.8925V12.8901V12.8877V12.8853V12.8829V12.8806V12.8782V12.8758V12.8734V12.871V12.8686V12.8662V12.8638V12.8614V12.859V12.8567V12.8543V12.8519V12.8495V12.8471V12.8447V12.8423V12.8399V12.8375V12.8351V12.8327V12.8303V12.828V12.8256V12.8232V12.8208V12.8184V12.816V12.8136V12.8112V12.8088V12.8064V12.804V12.8016V12.7992V12.7968V12.7944V12.7921V12.7897V12.7873V12.7849V12.7825V12.7801V12.7777V12.7753V12.7729V12.7705V12.7681V12.7657V12.7633V12.7609V12.7585V12.7561V12.7537V12.7513V12.7489V12.7465V12.7441V12.7417V12.7393V12.737V12.7346V12.7322V12.7298V12.7274V12.725V12.7226V12.7202V12.7178V12.7154V12.713V12.7106V12.7082V12.7058V12.7034V12.701V12.6986V12.6962V12.6938V12.6914V12.689V12.6866V12.6842V12.6818V12.6794V12.677V12.6746V12.6722V12.6698V12.6674V12.665V12.6626V12.6602V12.6578V12.6554V12.653V12.6506V12.6482V12.6457V12.6433V12.6409V12.6385V12.6361V12.6337V12.6313V12.6289V12.6265V12.6241V12.6217V12.6193V12.6169V12.6145V12.6121V12.6097V12.6073V12.6049V12.6025V12.6001V12.5977V12.5953V12.5928V12.5904V12.588V12.5856V12.5832V12.5808V12.5784V12.576V12.5736V12.5712V12.5688V12.5664V12.564V12.5615V12.5591V12.5567V12.5543V12.5519V12.5495V12.5471V12.5447V12.5423V12.5399V12.5374V12.535V12.5326V12.5302V12.5278V12.5254V12.523V12.5206V12.5182V12.5157V12.5133V12.5109V12.5085V12.5061V12.5037V12.5013V12.4989V12.4964V12.494V12.4916V12.4892V12.4868V12.4844V12.482V12.4795V12.4771V12.4747V12.4723V12.4699V12.4675V12.4651V12.4626V12.4602V12.4578V12.4554V12.453V12.4506V12.4481V12.4457V12.4433V12.4409V12.4385V12.436V12.4336V12.4312V12.4288V12.4264V12.424V12.4215V12.4191V12.4167V12.4143V12.4119V12.4094V12.407V12.4046V12.4022V12.3997V12.3973V12.3949V12.3925V12.3901V12.3876V12.3852V12.3828V12.3804V12.3779V12.3755V12.3731V12.3707V12.3683V12.3658V12.3634V12.361V12.3586V12.3561V12.3537V12.3513V12.3489V12.3464V12.344V12.3416V12.3391V12.3367V12.3343V12.3319V12.3294V12.327V12.3246V12.3222V12.3197V12.3173V12.3149V12.3124V12.311C1.97506 12.3086 2.03877 12.3067 2.10234 12.3049C2.32892 12.2983 2.55368 12.2917 2.77279 12.2615C3.40681 12.1787 3.9156 11.863 4.284 11.3517C4.47969 11.0808 4.7241 10.8766 5.02823 10.742L4.98778 10.6506L5.02795 10.7421C5.24762 10.6457 5.45602 10.5335 5.66037 10.4234L5.66203 10.4226L5.66293 10.4221C6.45594 9.98453 6.8946 9.30455 6.8946 8.39597C6.8946 7.46112 6.5386 6.67042 5.67405 6.18583L5.67393 6.18576C5.42764 6.04813 5.17735 5.92454 4.91881 5.79687C4.83603 5.756 4.7524 5.7147 4.66778 5.6724C5.5525 4.65782 6.58426 3.84382 7.76373 3.21106L7.76374 3.21105C9.2691 2.40318 10.8707 1.97144 12.6119 1.90206C12.3442 2.23085 12.0547 2.48325 11.72 2.69022L11.7193 2.69065C11.1663 3.03884 10.5555 3.21408 9.90961 3.27091L9.90951 3.27092C9.5081 3.30666 9.17194 3.43519 8.89829 3.64779C8.62511 3.86003 8.41946 4.15197 8.27204 4.50688L8.27202 4.50692C7.96199 5.2543 8.09158 5.96111 8.58056 6.58745L8.58088 6.58786C9.1367 7.29226 10.0439 7.60486 10.8991 7.31055L10.8992 7.3105C12.294 6.82847 13.5531 7.17878 14.7658 7.90744C15.7042 8.47463 16.3726 9.31684 16.8779 10.291L16.878 10.2912C17.1371 10.7879 17.4853 11.2025 18.0457 11.3931C18.5185 11.5562 18.9832 11.4868 19.4173 11.278C19.4173 11.278 19.4173 11.278 19.4174 11.278L19.374 11.1879M6.33103 21.7866L6.43042 21.7976C6.42366 21.8585 6.42954 21.8952 6.44187 21.9224C6.45421 21.9497 6.47837 21.9791 6.53037 22.0153L6.53046 22.0154C9.20693 23.8816 12.1597 24.5793 15.3264 23.8333C17.6548 23.2812 19.5268 22.2597 20.9505 20.7976C22.3743 19.3354 23.3545 17.4274 23.8911 15.0952C24.1125 14.1289 24.1542 13.1417 24.0574 12.1329C23.9368 12.1493 23.8268 12.1657 23.7198 12.1822C23.299 12.2513 22.9155 12.1814 22.6051 11.9856C22.2946 11.7897 22.0654 11.4731 21.9436 11.0636L21.9435 11.0632C21.8555 10.763 21.7413 10.4668 21.6207 10.1731M6.33103 21.7866C6.35264 21.5972 6.37057 21.4077 6.38847 21.2186C6.42732 20.8082 6.46602 20.3994 6.54175 19.9956C6.60496 19.6532 6.76299 19.316 6.93683 19.0105C7.33718 18.2994 7.51101 17.5566 7.3161 16.7612C7.11066 15.9289 6.57335 15.381 5.74104 15.1598C5.33016 15.0544 4.98776 14.87 4.70856 14.5592C4.57288 14.4055 4.42165 14.2595 4.27157 14.1145C4.24686 14.0907 4.22217 14.0668 4.19759 14.043L22.0395 11.0351C21.9499 10.7296 21.834 10.4293 21.7129 10.1343M6.47326 22.0974L21.2133 9.9211M6.47326 22.0974C9.17035 23.978 12.1519 24.6839 15.3494 23.9306L6.47326 22.0974ZM19.374 11.1879C19.9003 10.9353 20.2898 10.5249 20.6845 10.1092L20.6857 10.108C20.8121 9.97103 21.007 9.86567 21.1914 9.82353M19.374 11.1879C18.9579 11.3881 18.5206 11.4513 18.0781 11.2985L19.374 11.1879ZM21.1914 9.82353L21.2131 9.92115C21.2131 9.92113 21.2132 9.92112 21.2133 9.9211M21.1914 9.82353L21.2137 9.92101C21.2135 9.92104 21.2134 9.92107 21.2133 9.9211M21.1914 9.82353C21.4284 9.77085 21.6181 9.91308 21.7129 10.1343M21.2133 9.9211C21.3882 9.88233 21.5381 9.9808 21.6207 10.1731M21.7129 10.1343L21.6204 10.1723C21.6205 10.1726 21.6206 10.1728 21.6207 10.1731M21.7129 10.1343L21.621 10.1737C21.6209 10.1735 21.6208 10.1733 21.6207 10.1731M23.911 11.0147L23.9109 11.0138C23.8956 10.9169 23.8751 10.8196 23.854 10.7194C23.112 7.44919 21.2908 4.9708 18.3814 3.30454L18.3812 3.30446C17.0205 2.52243 15.5332 2.09924 13.9698 1.94238L13.9692 1.94231C13.9067 1.93561 13.8681 1.94244 13.8392 1.95648C13.8101 1.97066 13.7791 1.99802 13.7427 2.05481L13.7426 2.05499C13.5977 2.28033 13.4311 2.5008 13.2479 2.70028C12.3643 3.68591 11.2385 4.15824 9.94898 4.27604C9.71161 4.29987 9.5266 4.39766 9.38109 4.58542L9.38022 4.58652C9.0536 4.99602 9.03099 5.48011 9.31633 5.90087C9.60808 6.32858 10.111 6.50712 10.6011 6.36157L10.6018 6.36136C10.681 6.33848 10.7587 6.31186 10.8392 6.28427C10.8768 6.2714 10.915 6.25831 10.9543 6.2453C11.0748 6.20534 11.2011 6.1676 11.3309 6.14786L11.332 6.14769C12.7433 5.94914 14.0466 6.28266 15.2438 7.02019L23.911 11.0147ZM23.911 11.0147C23.9154 11.0413 23.9178 11.0688 23.9204 11.1049C23.9208 11.1099 23.9212 11.1151 23.9215 11.1204C23.922 11.1262 23.9224 11.1323 23.9228 11.1385C23.8829 11.1444 23.8434 11.1506 23.805 11.1568C23.7701 11.1623 23.7361 11.1677 23.7033 11.1726C23.6029 11.1875 23.5072 11.1985 23.4091 11.1985V11.1984L23.4037 11.1986C23.2831 11.2052 23.1827 11.1707 23.1004 11.1033C23.0167 11.0346 22.9466 10.9275 22.8982 10.7822L22.8979 10.7814C22.8711 10.7034 22.8448 10.6239 22.8184 10.5436C22.7325 10.2836 22.6441 10.0155 22.5249 9.76479L22.5248 9.76465C22.0503 8.77049 20.8217 8.61107 20.0651 9.41247L20.0645 9.41313C19.7948 9.70399 19.5268 9.99215 19.2192 10.2229L19.2189 10.2231C18.92 10.4491 18.6499 10.5165 18.4212 10.4624C18.1918 10.4081 17.977 10.2255 17.8033 9.89309L17.803 9.89261M23.911 11.0147L17.803 9.89261M17.803 9.89261C17.1863 8.72837 16.3854 7.72229 15.2439 7.02023L17.803 9.89261ZM0.900062 12.9523C0.878838 19.6553 6.27544 25.0893 12.9734 25.1052C19.6345 25.1211 25.084 19.6981 25.1 13.0318C25.1159 6.32341 19.7297 0.91597 13.0266 0.900035C6.36049 0.8841 0.916018 6.29117 0.900062 12.9523ZM0.900062 12.9523C0.900062 12.9523 0.900062 12.9523 0.900062 12.9523L1.00006 12.9526L0.900063 12.9523C0.900062 12.9523 0.900062 12.9523 0.900062 12.9523ZM6.44887 17.8007L6.44866 17.8019C6.40361 18.0472 6.30306 18.3039 6.16749 18.5198C5.8099 19.0834 5.63188 19.6948 5.5834 20.3513C5.56362 20.5924 5.53495 20.83 5.5061 21.069C5.50067 21.114 5.49522 21.1591 5.48983 21.2043C5.35511 21.0529 5.21948 20.9044 5.08442 20.7565C4.77636 20.4191 4.47125 20.0849 4.18655 19.7282C2.97744 18.1749 2.26258 16.4029 1.99552 14.4519C1.99582 14.4502 1.99659 14.4467 1.99855 14.4412C2.0023 14.4305 2.0087 14.4173 2.01742 14.4036C2.02611 14.39 2.03582 14.378 2.04498 14.369C2.04949 14.3645 2.05336 14.3613 2.05638 14.3591C2.05913 14.3572 2.06054 14.3565 2.06054 14.3565C2.32994 14.2443 2.58284 14.2139 2.81843 14.2572C3.05414 14.3006 3.27971 14.4193 3.49211 14.6167L3.49255 14.6171C3.67134 14.7813 3.8414 14.9546 4.01307 15.1296C4.0873 15.2053 4.16184 15.2812 4.2375 15.3569C4.5434 15.6628 4.90264 15.8852 5.3364 15.9741L5.33711 15.9743C5.75548 16.057 6.08006 16.2615 6.27677 16.5647C6.47358 16.8681 6.55044 17.2828 6.44887 17.8007ZM2.88791 11.2024C2.6394 11.2969 2.35729 11.3245 2.03679 11.2948C2.31866 9.53116 2.97595 7.93772 4.04241 6.46589C4.172 6.53551 4.30169 6.6019 4.43027 6.66772C4.77371 6.84352 5.10925 7.01528 5.41393 7.23391C5.71371 7.45048 5.92103 7.90324 5.91104 8.37541C5.90119 8.84103 5.68014 9.31218 5.1393 9.57539C5.08061 9.60345 5.01891 9.63127 4.95576 9.65975C4.76967 9.74365 4.57095 9.83325 4.39941 9.9516C4.37404 9.96867 4.34813 9.98594 4.32186 10.0035C4.07212 10.17 3.78885 10.3588 3.61009 10.6141C3.40148 10.9107 3.1613 11.0984 2.88791 11.2024Z" fill="black" stroke="black" stroke-width="0.2"/>
<path d="M9.03076 9.61368L9.03076 9.61367C9.36779 9.13059 9.82042 8.92976 10.3977 8.89677L10.3978 8.89677C11.1742 8.85363 11.8733 9.00477 12.5073 9.48026L12.5078 9.48068C12.7431 9.65972 13.0052 9.80893 13.2741 9.93303L13.2745 9.93321C13.4137 9.99819 13.5963 10.0233 13.758 10.0136C13.9312 10.0025 14.0986 9.96229 14.2748 9.91999C14.3401 9.9043 14.4067 9.88832 14.4752 9.87343L14.477 9.87304L14.477 9.87306C15.2122 9.72713 15.8699 10.0611 16.1735 10.7526M9.03076 9.61368L16.1736 10.7527C16.1736 10.7527 16.1736 10.7526 16.1735 10.7526M9.03076 9.61368C8.59337 10.2408 8.15713 10.8662 7.70004 11.4757C7.4233 11.8447 7.25788 12.251 7.30561 12.717C7.26386 13.2602 7.41477 13.7282 7.83688 14.0828L7.83687 14.0828L7.83814 14.0839C8.25992 14.4266 8.68171 14.764 9.1035 15.0962C9.48239 15.3958 9.91401 15.4739 10.3772 15.3735L10.3772 15.3736L10.3802 15.3728C10.4215 15.3625 10.4616 15.3519 10.5011 15.3415C10.5877 15.3188 10.6718 15.2967 10.7601 15.279C10.9695 15.2371 11.1394 15.2952 11.2275 15.4512M9.03076 9.61368L11.3147 15.4022M16.1735 10.7526C16.2737 10.979 16.3691 11.2053 16.4642 11.4309C16.602 11.7578 16.7391 12.0829 16.8888 12.4041M16.1735 10.7526L16.8888 12.4041M16.8888 12.4041C16.9582 12.5471 17.0915 12.6829 17.2296 12.7956C17.3213 12.8674 17.423 12.9303 17.5302 12.9927C17.5627 13.0116 17.596 13.0306 17.6297 13.0498C17.7055 13.0931 17.7832 13.1375 17.8572 13.1838M16.8888 12.4041L17.4926 17.3533C17.4899 17.1098 17.4873 16.8716 17.504 16.6313L17.504 16.6306C17.5134 16.4807 17.5703 16.3184 17.656 16.1899L17.6565 16.1891C17.7704 16.015 17.9004 15.8582 18.0343 15.6968C18.1083 15.6076 18.1834 15.517 18.2576 15.4213L18.2576 15.4213C18.5546 15.0383 18.6658 14.6072 18.5938 14.204C18.5217 13.8008 18.2683 13.4366 17.8572 13.1838M17.8572 13.1838C17.8571 13.1837 17.857 13.1836 17.857 13.1836L17.8046 13.2688L17.8576 13.184C17.8575 13.1839 17.8573 13.1838 17.8572 13.1838ZM15.5802 20.9893L15.5802 20.9893C15.2674 21.4528 14.8239 21.6996 14.2577 21.66C13.6652 21.6204 13.2452 21.3059 12.9941 20.7703L12.9939 20.7699C12.5678 19.8484 12.3236 18.8701 12.0919 17.9015M15.5802 20.9893L12.1892 17.8781M15.5802 20.9893L15.5815 20.9873M15.5802 20.9893L15.5815 20.9873M12.0919 17.9015C12.0919 17.9014 12.0919 17.9014 12.0919 17.9013L12.1892 17.8781M12.0919 17.9015C12.092 17.9016 12.092 17.9017 12.092 17.9018L12.1892 17.8781M12.0919 17.9015C12.0599 17.7703 12.0304 17.6398 12.001 17.5102C11.9273 17.1844 11.8548 16.8639 11.747 16.5516L11.7467 16.551C11.6182 16.1706 11.4273 15.8088 11.2275 15.4512M12.1892 17.8781C12.158 17.7504 12.1289 17.622 12.0998 17.4934C12.0256 17.1656 11.9512 16.8368 11.8415 16.519C11.7098 16.1292 11.5149 15.7604 11.3147 15.4022M11.2275 15.4512C11.2275 15.4512 11.2276 15.4513 11.2276 15.4513L11.3147 15.4022M11.2275 15.4512C11.2275 15.4511 11.2274 15.4511 11.2274 15.451L11.3147 15.4022M15.5815 20.9873C15.6439 20.8898 15.7038 20.7889 15.7619 20.691C15.7832 20.6551 15.8043 20.6196 15.8251 20.5849C15.9009 20.4616 15.974 20.3383 16.0466 20.2159C16.3581 19.6902 16.6597 19.1815 17.1182 18.7689C17.4063 18.5101 17.4936 18.134 17.4937 17.7734L15.5815 20.9873ZM10.7142 9.90785H10.7238L14.3858 10.8075C14.4648 10.7923 14.5438 10.7771 14.6229 10.7613L14.6422 10.8594C14.6422 10.8594 14.6423 10.8594 14.6423 10.8594C14.8168 10.825 14.94 10.838 15.0336 10.8868C15.1271 10.9357 15.208 11.0291 15.2792 11.1912C15.5164 11.7339 15.753 12.2756 15.9791 12.8223C16.1241 13.1738 16.3546 13.444 16.6853 13.6346L16.6858 13.6349C16.9167 13.7661 17.1468 13.9021 17.366 14.043L17.366 14.043L17.3673 14.0438C17.5235 14.1408 17.603 14.2573 17.6238 14.3747C17.6447 14.4924 17.6101 14.6308 17.4984 14.7781C17.2995 15.0398 17.0951 15.2914 16.8849 15.5436L16.8847 15.5439C16.6164 15.8681 16.4924 16.2288 16.5036 16.6481L16.5036 16.6483C16.5141 17.011 16.5192 17.3655 16.4985 17.7189C16.4935 17.791 16.4824 17.8713 16.4615 17.9428C16.4399 18.0165 16.4111 18.0694 16.3786 18.0987C16.0398 18.4023 15.78 18.7545 15.5491 19.1191C15.4337 19.3013 15.325 19.4876 15.2175 19.6725L15.201 19.7009C15.0988 19.8767 14.9975 20.051 14.8909 20.222L14.8909 20.222L14.8902 20.2232C14.887 20.2285 14.8838 20.2338 14.8806 20.239C14.8058 20.3629 14.7415 20.4695 14.6587 20.5468C14.5782 20.6219 14.4807 20.6685 14.3338 20.6597L14.3336 20.6597C14.1801 20.6509 14.0899 20.5901 14.0205 20.5021C13.9571 20.4215 13.9125 20.3212 13.8606 20.2042C13.8504 20.1814 13.84 20.1579 13.8291 20.1338C13.5695 19.5497 13.3987 18.9378 13.245 18.315C13.2062 18.1579 13.1685 17.9999 13.1306 17.8415C13.019 17.3741 12.9065 16.9031 12.7641 16.442L12.764 16.4419C12.5979 15.9062 12.3522 15.3939 12.0872 14.9116L12.0869 14.9111C11.8013 14.397 11.1576 14.1278 10.5945 14.306L10.5944 14.306C10.3338 14.3887 10.1135 14.4002 9.91503 14.3498C9.71633 14.2994 9.52993 14.1846 9.34127 13.9985C9.18471 13.842 9.00168 13.7039 8.8264 13.5717C8.74319 13.5089 8.66172 13.4474 8.58566 13.3859L8.5854 13.3857C8.43519 13.2651 8.32866 13.0592 8.29084 12.8359C8.25298 12.6124 8.28691 12.3897 8.39412 12.2355C8.89445 11.5193 9.3992 10.8042 9.92471 10.1106L9.925 10.1102C9.95663 10.068 10.0136 10.0304 10.094 9.99582C10.1624 9.96635 10.2372 9.94318 10.3124 9.91992C10.3244 9.91618 10.3365 9.91245 10.3485 9.90868C10.3921 9.8955 10.4437 9.89339 10.5078 9.89653C10.5273 9.89749 10.5498 9.89912 10.5736 9.90086C10.6191 9.90417 10.6696 9.90785 10.7142 9.90785Z" fill="black" stroke="black" stroke-width="0.2"/>
<path d="M20.6976 18.6545L20.6876 18.6771C20.6827 18.688 20.6786 18.7008 20.6725 18.7194C20.6681 18.7331 20.6626 18.7499 20.6551 18.7715C20.6398 18.8152 20.6187 18.869 20.5868 18.9202C20.2185 19.5412 19.8448 20.1621 19.4714 20.7827L19.4703 20.7846L19.4699 20.7853C19.3621 20.9612 19.2253 21.0796 19.0596 21.1009C18.8935 21.1222 18.7329 21.0416 18.5877 20.8993C18.5877 20.8993 18.5877 20.8993 18.5877 20.8992L18.6577 20.8278C18.5444 20.7172 18.4312 20.604 18.3179 20.4907C18.2046 20.3774 18.0914 20.2642 17.9781 20.1536L20.6976 18.6545ZM20.6976 18.6545L20.696 18.6298M20.6976 18.6545L20.696 18.6298M20.696 18.6298C20.6933 18.5899 20.6923 18.5681 20.6923 18.5541C20.6923 18.5422 20.6931 18.5402 20.6932 18.5395L20.6987 18.5177M20.696 18.6298L20.6987 18.5177M20.6987 18.5177L20.6943 18.4957M20.6987 18.5177L20.6943 18.4957M20.6943 18.4957C20.663 18.3392 20.6319 18.1826 20.6009 18.0259C20.5016 17.5244 20.4021 17.0224 20.2936 16.5239M20.6943 18.4957L20.2936 16.5239M20.2936 16.5239C20.2478 16.3134 20.1191 16.1646 19.9465 16.1157M20.2936 16.5239L19.9465 16.1157M19.9465 16.1157C19.7749 16.0672 19.5854 16.1247 19.4313 16.2728L19.9465 16.1157ZM17.7353 19.9673C17.7688 20.0653 17.8296 20.1493 17.9085 20.2253L19.4312 16.2729C19.0351 16.6532 18.6498 17.0438 18.2704 17.4337C18.195 17.5093 18.132 17.6209 18.1119 17.7264C18.0276 18.1187 17.9491 18.514 17.8706 18.9093C17.8216 19.156 17.7726 19.4027 17.7222 19.6486C17.6981 19.7631 17.7016 19.8686 17.7353 19.9673ZM18.7794 19.4091L18.7796 19.4085C18.8594 19.1479 18.9306 18.8651 18.9471 18.5846C18.9729 18.1775 19.171 17.8929 19.4924 17.6218C19.5001 17.66 19.5077 17.698 19.5153 17.7359C19.5648 17.9834 19.6126 18.2221 19.6549 18.464L19.6548 18.464L19.6553 18.4664C19.6602 18.4911 19.6513 18.5381 19.6333 18.5652L19.6332 18.5651L19.6304 18.5698C19.4829 18.8195 19.3344 19.0666 19.1848 19.3153C19.0896 19.4735 18.9941 19.6324 18.8982 19.7931C18.8408 19.7514 18.8029 19.7091 18.7808 19.6646C18.7512 19.6049 18.7427 19.5261 18.7794 19.4091Z" fill="black" stroke="black" stroke-width="0.2"/>
</svg>
