<svg width="22" height="22" viewBox="0 0 22 22" fill="none" xmlns="http://www.w3.org/2000/svg">
<path fill-rule="evenodd" clip-rule="evenodd" d="M11 21C16.5228 21 21 16.5228 21 11C21 5.47715 16.5228 1 11 1C5.47715 1 1 5.47715 1 11C1 16.5228 5.47715 21 11 21ZM11 22C17.0751 22 22 17.0751 22 11C22 4.92487 17.0751 0 11 0C4.92487 0 0 4.92487 0 11C0 17.0751 4.92487 22 11 22Z" fill="black"/>
<circle cx="5.61538" cy="10.6154" r="1.61538" fill="black"/>
<circle cx="11.0002" cy="10.6154" r="1.61538" fill="black"/>
<circle cx="16.3844" cy="10.6154" r="1.61538" fill="black"/>
</svg>
