<svg width="17" height="22" viewBox="0 0 17 22" fill="none" xmlns="http://www.w3.org/2000/svg">
<path d="M1.41336 22C1.38855 21.9863 1.36374 21.9691 1.33539 21.9622C0.463558 21.7491 0.00283637 21.1718 0.00283637 20.2817C0.00283637 14.5391 0.00283637 8.79997 0.00283637 3.05739C0.00283637 2.62094 -0.014887 2.18106 0.0382734 1.75148C0.155226 0.765172 1.02351 0.0263006 2.04774 0.00568096C2.55808 -0.00462888 3.06488 0.00224427 3.57522 0.00224427C7.3248 0.00224427 11.0744 0.00224427 14.824 0.00224427C15.8765 0.00224427 16.7023 0.607088 16.9327 1.55903C16.9787 1.74461 16.9965 1.94049 16.9965 2.13294C17 8.18826 17 14.2436 17 20.2989C17 21.1683 16.5322 21.7491 15.6674 21.9588C15.6391 21.9656 15.6178 21.9828 15.5895 21.9966C15.4123 21.9966 15.2351 21.9966 15.0579 21.9966C14.5546 21.89 14.1896 21.5773 13.8387 21.2302C12.3431 19.7662 10.8369 18.316 9.33427 16.8588C8.79912 16.3399 8.20372 16.3399 7.66857 16.8588C6.1659 18.316 4.65969 19.7662 3.16411 21.2302C2.80971 21.5773 2.44822 21.8866 1.94496 21.9931C1.76776 22 1.59056 22 1.41336 22ZM1.33185 11.1953C1.33185 14.1955 1.33185 17.1956 1.33185 20.1923C1.33185 20.2645 1.3283 20.3367 1.33539 20.4054C1.3602 20.6529 1.58347 20.78 1.81384 20.67C1.90244 20.6254 1.9804 20.5532 2.05129 20.4845C3.6142 18.9723 5.17358 17.4602 6.73649 15.9481C7.77489 14.9412 9.2244 14.9378 10.2628 15.9447C11.8257 17.4568 13.3851 18.9723 14.9445 20.4845C15.0083 20.5463 15.0685 20.6116 15.1429 20.6563C15.3698 20.7972 15.6356 20.67 15.6674 20.4123C15.6745 20.347 15.671 20.2851 15.671 20.2198C15.671 14.2126 15.671 8.20888 15.671 2.20168C15.671 1.5659 15.3946 1.29441 14.746 1.29441C10.5818 1.29441 6.41753 1.29441 2.25684 1.29441C1.60828 1.29441 1.33185 1.56247 1.33185 2.19824C1.33185 5.19497 1.33185 8.19513 1.33185 11.1953Z" fill="black"/>
</svg>
