<svg width="26" height="24" viewBox="0 0 26 24" fill="none" xmlns="http://www.w3.org/2000/svg">
<path d="M12.8708 23.6645C9.72205 23.6645 6.5787 23.6645 3.42997 23.6645C1.36849 23.6645 0.00134555 22.2973 0.00134555 20.2359C0.00134555 18.8687 -0.00403678 17.5016 0.00672813 16.1398C0.0121106 15.5693 0.421176 15.1225 0.964804 15.0687C1.49228 15.0149 1.99285 15.3594 2.12203 15.8868C2.15433 16.0268 2.15433 16.1775 2.15433 16.3174C2.15433 17.6361 2.15433 18.9602 2.15433 20.2789C2.15433 21.0809 2.57416 21.5115 3.36538 21.5115C9.72744 21.5115 16.0841 21.5115 22.4462 21.5115C23.2266 21.5115 23.6572 21.0863 23.6572 20.3112C23.6572 18.9225 23.6518 17.5339 23.6626 16.1452C23.668 15.5747 24.0717 15.1279 24.6153 15.0633C25.1428 15.0041 25.6433 15.3432 25.7779 15.8707C25.8102 15.9999 25.8156 16.1344 25.8156 16.269C25.8156 17.6254 25.821 18.9764 25.8156 20.3328C25.8102 22.2651 24.4161 23.6537 22.4838 23.6537C19.2759 23.6645 16.0733 23.6645 12.8708 23.6645Z" fill="black"/>
<path d="M11.8268 16.0265C11.8268 15.6389 11.8268 15.3268 11.8268 15.0146C11.8268 10.4449 11.8268 5.87517 11.8268 1.31085C11.8268 1.13323 11.8322 0.95023 11.8752 0.777991C12.0206 0.261276 12.5104 -0.0562881 13.0271 0.00830135C13.5276 0.0675083 13.9313 0.487339 13.969 0.998672C13.9798 1.12247 13.9744 1.24626 13.9744 1.37006C13.9744 6.10662 13.9744 10.8432 13.9744 15.5797C13.9744 15.7089 13.9744 15.8381 13.9744 16.0426C14.4965 15.6282 14.9701 15.2568 15.4384 14.88C16.165 14.2987 16.8863 13.7174 17.6129 13.1361C18.135 12.7163 18.7755 12.7593 19.1685 13.233C19.5721 13.712 19.4914 14.3741 18.9585 14.7993C17.1931 16.2149 15.4277 17.6251 13.6622 19.0353C13.124 19.4659 12.6611 19.4551 12.1121 19.0191C10.3951 17.652 8.68344 16.2795 6.97182 14.9069C6.45511 14.4925 6.36361 13.8466 6.74576 13.3622C7.12791 12.8777 7.77919 12.8185 8.29591 13.2276C9.36701 14.0726 10.4327 14.9285 11.4985 15.7789C11.5953 15.8596 11.6869 15.9242 11.8268 16.0265Z" fill="black"/>
</svg>
