<svg width="17" height="21" viewBox="0 0 17 21" fill="none" xmlns="http://www.w3.org/2000/svg">
<path fill-rule="evenodd" clip-rule="evenodd" d="M1.81778 2.00583C1.75458 2.03879 1.5 2.26329 1.5 3.22984V19.1569C1.5 19.3448 1.71166 19.4728 1.88706 19.3578L15.063 10.7208C15.2136 10.6221 15.2136 10.4014 15.063 10.3027L3.04948 2.42768C2.23766 1.89552 1.89143 1.96743 1.81778 2.00583ZM1.12418 0.675826C1.98297 0.227972 2.99205 0.596487 3.87182 1.17319L15.8853 9.04819C16.9395 9.73919 16.9395 11.2843 15.8853 11.9753L2.70939 20.6123C1.55472 21.3692 0 20.5593 0 19.1569V3.22984C0 2.17376 0.254951 1.12913 1.12418 0.675826Z" fill="black"/>
</svg>
