<svg width="23" height="23" viewBox="0 0 23 23" fill="none" xmlns="http://www.w3.org/2000/svg">
<path d="M5.89183 8.61688C7.37337 8.61688 8.86078 8.61688 10.3423 8.61688C14.3401 8.61688 18.332 8.61688 22.3298 8.61688C22.853 8.61688 23 8.76372 23 9.28061C23 13.0163 23 16.7519 23 20.4934C23 21.7093 22.2769 22.6608 21.1481 22.931C20.9482 22.978 20.7307 22.9956 20.5249 22.9956C14.8104 23.0015 9.10182 23.0015 3.38734 22.9956C1.95872 22.9956 0.924002 21.956 0.924002 20.5228C0.918123 17.0691 0.935758 13.6154 0.912242 10.1675C0.906363 9.69764 0.753507 9.22774 0.641804 8.76372C0.459552 7.99428 0.253785 7.22483 0.059775 6.45538C-0.16951 5.53321 0.271424 4.79901 1.20032 4.58168C4.51025 3.79461 7.82606 3.01341 11.1419 2.23222C14.1931 1.50976 17.2444 0.787298 20.2956 0.0589644C21.248 -0.164235 21.9535 0.252795 22.2004 1.19845C22.4474 2.13824 22.6943 3.07802 22.9471 4.01781C23.0705 4.48183 22.9471 4.68741 22.4768 4.79313C18.5378 5.6918 14.5988 6.5846 10.6598 7.48327C9.13709 7.82981 7.60853 8.17636 6.08585 8.51703C6.02118 8.52878 5.9565 8.55227 5.89771 8.56989C5.89183 8.59339 5.89183 8.60513 5.89183 8.61688ZM22.0182 13.4333C15.3043 13.4333 8.59622 13.4333 1.87054 13.4333C1.87054 13.5214 1.87054 13.5977 1.87054 13.6682C1.87054 15.9355 1.87054 18.2086 1.87054 20.4758C1.87054 21.4449 2.4702 22.0441 3.44025 22.0441C9.11358 22.0441 14.7869 22.0441 20.4661 22.0441C20.6366 22.0441 20.813 22.0264 20.9776 21.9853C21.6419 21.8032 22.0299 21.257 22.0299 20.4934C22.0299 18.2144 22.0299 15.9413 22.0299 13.6624C22.0299 13.586 22.0241 13.5155 22.0182 13.4333ZM12.6352 2.86657C13.5053 3.73 14.3283 4.55819 15.1632 5.36875C15.2161 5.42161 15.3454 5.42749 15.4277 5.40987C15.8863 5.31589 16.3507 5.20429 16.8093 5.10443C17.4678 4.95172 18.1262 4.79901 18.7964 4.64629C18.7729 4.60518 18.767 4.58755 18.7494 4.56993C17.9322 3.74762 17.1091 2.92531 16.2861 2.10887C16.2332 2.05601 16.1097 2.04426 16.0274 2.06188C15.4924 2.17935 14.9633 2.30857 14.4342 2.4378C13.8521 2.57876 13.276 2.71973 12.6352 2.86657ZM8.00831 3.96495C8.04947 4.01781 8.0671 4.04718 8.09062 4.07067C8.87254 4.85187 9.65445 5.63894 10.4481 6.41426C10.5069 6.473 10.6539 6.49649 10.7421 6.47887C11.7063 6.26742 12.6704 6.05009 13.6287 5.83277C13.7816 5.79753 13.9403 5.75641 14.1402 5.70942C13.2819 4.85187 12.4529 4.02956 11.624 3.21312C11.5828 3.172 11.4887 3.14851 11.4241 3.16613C10.2953 3.4187 9.16649 3.68888 8.00831 3.96495ZM3.32855 5.07507C4.16926 5.915 4.9747 6.71969 5.78601 7.51263C5.83304 7.55375 5.93299 7.5655 6.00354 7.55375C6.72667 7.39516 7.4498 7.2307 8.17293 7.06624C8.58446 6.97226 8.99599 6.87828 9.42517 6.77843C9.39577 6.73731 9.38402 6.71382 9.37226 6.6962C8.58446 5.90913 7.79666 5.11618 6.99711 4.33499C6.93244 4.27625 6.79134 4.25275 6.70315 4.27038C6.33865 4.34086 5.97414 4.44071 5.60964 4.52294C4.85712 4.7109 4.11635 4.88711 3.32855 5.07507ZM13.7169 12.4348C13.7698 12.4406 13.8051 12.4465 13.8404 12.4465C14.9809 12.4465 16.1215 12.4465 17.2561 12.4524C17.4031 12.4524 17.4501 12.3819 17.503 12.2762C17.9205 11.4362 18.3379 10.6022 18.7553 9.76812C18.7847 9.70938 18.8023 9.65065 18.8376 9.57429C17.6265 9.57429 16.4389 9.57429 15.2572 9.58016C15.1867 9.58016 15.0926 9.66827 15.0573 9.73875C14.6282 10.5787 14.2108 11.4245 13.7875 12.2644C13.7639 12.3114 13.7463 12.3701 13.7169 12.4348ZM9.26055 9.57429C8.02594 9.57429 6.83837 9.57429 5.65079 9.58016C5.58612 9.58016 5.49793 9.66239 5.46854 9.73288C5.03349 10.5904 4.60431 11.4539 4.16926 12.3173C4.15162 12.3525 4.14574 12.3936 4.12811 12.4524C5.33332 12.4524 6.52678 12.4524 7.71436 12.4465C7.77315 12.4465 7.85545 12.376 7.89072 12.3173C8.09061 11.9355 8.28462 11.542 8.47863 11.1543C8.72555 10.6374 8.98424 10.1264 9.26055 9.57429ZM14.052 9.58604C13.9873 9.58016 13.9579 9.57429 13.9286 9.57429C12.7821 9.57429 11.6357 9.57429 10.4893 9.56841C10.3599 9.56841 10.307 9.62128 10.2541 9.727C9.83083 10.5787 9.40753 11.4245 8.97836 12.2762C8.95484 12.3232 8.94308 12.376 8.91956 12.4465C10.1307 12.4465 11.3182 12.4465 12.4999 12.4406C12.5646 12.4406 12.6528 12.3643 12.6881 12.2938C12.8468 12.006 12.9879 11.7064 13.1349 11.4127C13.4406 10.8195 13.7404 10.2145 14.052 9.58604ZM17.2855 1.76232C18.1733 2.64337 19.0198 3.48918 19.8723 4.32911C19.9076 4.36435 19.9958 4.3761 20.0487 4.36435C20.3779 4.29974 20.7071 4.22339 21.0364 4.14703C21.3303 4.08242 21.6302 4.01194 21.93 3.94145C21.7007 3.0604 21.4773 2.20872 21.248 1.35704C21.1657 1.05749 20.9482 0.904771 20.6601 0.975255C19.549 1.22782 18.4437 1.49214 17.2855 1.76232ZM22.0182 12.4348C22.0182 11.4715 22.0182 10.5317 22.0182 9.56841C21.93 9.56841 21.8595 9.56841 21.783 9.56841C21.2363 9.56841 20.6895 9.57429 20.1428 9.56254C19.984 9.56254 19.9076 9.60953 19.837 9.7505C19.4314 10.5846 19.0081 11.4069 18.5966 12.2351C18.5672 12.2938 18.5436 12.3525 18.5084 12.4289C19.6901 12.4348 20.8424 12.4348 22.0182 12.4348ZM1.57658 8.56402C2.63482 8.3232 3.66954 8.08825 4.73365 7.84743C4.6631 7.77108 4.61019 7.71234 4.56316 7.66535C3.96937 7.07211 3.34619 6.50824 2.79355 5.87976C2.40553 5.43336 2.01751 5.25715 1.47076 5.52147C1.43548 5.53909 1.39433 5.53321 1.35905 5.54496C1.02982 5.63306 0.882849 5.85626 0.965156 6.18519C1.16505 6.96051 1.37081 7.73583 1.57658 8.56402ZM1.88817 12.4465C2.22328 12.4465 2.54075 12.4406 2.85234 12.4524C2.98756 12.4583 3.05223 12.4054 3.10515 12.2879C3.52256 11.4421 3.94586 10.6022 4.36327 9.76225C4.39267 9.70938 4.41031 9.65065 4.43382 9.58604C3.5696 9.58604 2.73476 9.58604 1.88817 9.58604C1.88817 10.5376 1.88817 11.4774 1.88817 12.4465Z" fill="black"/>
</svg>
