<svg width="21" height="21" viewBox="0 0 21 21" fill="none" xmlns="http://www.w3.org/2000/svg">
<path d="M0 10.5057C0 4.69944 4.69943 -0.00382768 10.5057 2.33752e-06C16.3044 0.00383236 20.9962 4.69561 21 10.4943C21.0038 16.3006 16.3006 21.0038 10.4943 21C4.6956 21 0 16.3044 0 10.5057ZM10.4981 1.64308C5.61864 1.64308 1.64308 5.61481 1.63925 10.4943C1.63542 15.3699 5.60332 19.3493 10.4866 19.3608C15.3699 19.3722 19.3607 15.3814 19.3569 10.4981C19.3531 5.61481 15.3814 1.64308 10.4981 1.64308Z" fill="black"/>
<path d="M10.5632 15.7989C9.03881 15.7759 7.88598 15.1746 6.92081 14.1788C6.71782 13.9682 6.53015 13.7384 6.36163 13.5009C6.07438 13.0988 6.15481 12.6085 6.53398 12.3404C6.92081 12.0647 7.40722 12.1566 7.70214 12.5587C8.23834 13.2903 8.90093 13.8494 9.80099 14.0678C10.8274 14.3167 11.7198 14.0026 12.4973 13.3362C12.7578 13.1102 12.9876 12.8421 13.202 12.5702C13.5161 12.1719 13.9834 12.0647 14.3702 12.3328C14.757 12.6009 14.849 13.1026 14.5502 13.5086C13.7114 14.6576 12.639 15.4695 11.2066 15.73C10.9615 15.7721 10.7087 15.7836 10.5632 15.7989Z" fill="black"/>
<path d="M6.89404 8.82047C6.3272 8.8243 5.86377 8.36087 5.86377 7.79402C5.86377 7.22718 6.3272 6.76758 6.89404 6.76758C7.45323 6.77141 7.909 7.22335 7.91283 7.78253C7.92049 8.35321 7.46089 8.81664 6.89404 8.82047Z" fill="black"/>
<path d="M15.0901 7.79402C15.0901 8.36087 14.6267 8.82047 14.0598 8.82047C13.493 8.81664 13.0372 8.35321 13.041 7.78253C13.0449 7.22335 13.5045 6.77141 14.0637 6.76758C14.6305 6.76758 15.0939 7.22718 15.0901 7.79402Z" fill="black"/>
</svg>
