<svg width="17" height="16" viewBox="0 0 17 16" fill="none" xmlns="http://www.w3.org/2000/svg">
<path d="M17 5.37865C16.9305 5.71327 16.8793 6.0516 16.7842 6.37879C16.4879 7.41982 15.9428 8.33072 15.3173 9.19701C14.3076 10.6024 13.1187 11.8442 11.8749 13.034C10.8946 13.9709 9.89223 14.8818 8.89721 15.8001C8.60456 16.0715 8.38141 16.0641 8.08144 15.7927C6.45357 14.3241 4.83301 12.8518 3.34415 11.2307C2.40401 10.2046 1.51874 9.13008 0.84198 7.89944C0.417635 7.1261 0.073766 6.3193 0.0152357 5.4307C-0.120116 3.3821 0.64444 1.76107 2.38572 0.697728C4.26234 -0.443689 6.66575 -0.153687 8.3302 1.34094C8.37776 1.38555 8.42897 1.43017 8.47652 1.47107C8.72894 1.27773 8.97038 1.07696 9.22279 0.902217C10.975 -0.302405 13.2943 -0.291252 14.977 0.943114C16.1477 1.80197 16.7988 2.98428 16.9671 4.44172C16.9744 4.49749 16.9854 4.54955 16.9963 4.60531C17 4.86186 17 5.12211 17 5.37865Z" fill="url(#paint0_linear_151_705)"/>
<defs>
<linearGradient id="paint0_linear_151_705" x1="8.5" y1="0" x2="8.5" y2="16" gradientUnits="userSpaceOnUse">
<stop stop-color="#EB0055"/>
<stop offset="1" stop-color="#FFC31A"/>
</linearGradient>
</defs>
</svg>
