<svg width="25" height="24" viewBox="0 0 25 24" fill="none" xmlns="http://www.w3.org/2000/svg">
<path d="M18.9566 11.3497C18.9566 11.184 18.8222 11.0497 18.6566 11.0497H13.7286C13.5629 11.0497 13.4286 10.9154 13.4286 10.7497V5.82173C13.4286 5.65604 13.2943 5.52173 13.1286 5.52173H11.741C11.5754 5.52173 11.441 5.65604 11.441 5.82173V10.7497C11.441 10.9154 11.3067 11.0497 11.141 11.0497H6.21309C6.0474 11.0497 5.91309 11.184 5.91309 11.3497V12.7373C5.91309 12.9029 6.0474 13.0373 6.21309 13.0373H11.141C11.3067 13.0373 11.441 13.1716 11.441 13.3373V18.2652C11.441 18.4309 11.5754 18.5652 11.741 18.5652H13.1286C13.2943 18.5652 13.4286 18.4309 13.4286 18.2652V13.3373C13.4286 13.1716 13.5629 13.0373 13.7286 13.0373H18.6566C18.8222 13.0373 18.9566 12.9029 18.9566 12.7373V11.3497Z" fill="black"/>
<path fill-rule="evenodd" clip-rule="evenodd" d="M12.435 22.5869C18.258 22.5869 22.9785 17.8664 22.9785 12.0434C22.9785 6.22043 18.258 1.49996 12.435 1.49996C6.61204 1.49996 1.89156 6.22043 1.89156 12.0434C1.89156 17.8664 6.61204 22.5869 12.435 22.5869ZM12.435 24C19.0384 24 24.3916 18.6468 24.3916 12.0434C24.3916 5.44003 19.0384 0.0869141 12.435 0.0869141C5.83163 0.0869141 0.478516 5.44003 0.478516 12.0434C0.478516 18.6468 5.83163 24 12.435 24Z" fill="black"/>
</svg>
