<svg width="25" height="24" viewBox="0 0 25 24" fill="none" xmlns="http://www.w3.org/2000/svg">
<path d="M13.2648 0.11016C13.8575 0.301941 14.2758 0.720372 14.7058 1.14461C17.7737 4.22473 20.8532 7.29323 23.9211 10.3733C24.1302 10.5826 24.3394 10.8325 24.4556 11.0998C25.0831 12.6166 24.1477 14.1625 22.5208 14.2264C22.3988 14.2322 22.2709 14.2264 22.1082 14.2264C22.1082 14.3252 22.1082 14.4182 22.1082 14.5054C22.1082 16.7951 22.114 19.0848 22.1082 21.3804C22.1024 22.6357 21.3064 23.6469 20.1095 23.9259C19.9061 23.9724 19.6911 23.9956 19.4878 23.9956C18.256 24.0014 17.0241 24.0014 15.7923 23.9956C15.2927 23.9956 15.0079 23.7108 15.0079 23.211C15.0079 21.4095 14.9905 19.6079 15.0138 17.8121C15.0254 17.0217 14.485 16.4464 13.6832 16.4755C13.0208 16.4987 12.3584 16.4755 11.696 16.4813C10.8826 16.4813 10.4061 16.9578 10.4061 17.7772C10.4061 19.5614 10.4061 21.3455 10.4061 23.1297C10.4061 23.7399 10.1447 23.9956 9.54038 23.9956C8.35506 23.9956 7.16975 23.9956 5.99024 23.9956C4.42144 23.9956 3.31165 22.8856 3.31165 21.3165C3.30584 19.0558 3.31165 16.7951 3.31165 14.5344C3.31165 14.4414 3.31165 14.3484 3.31165 14.2438C3.04438 14.2206 2.78872 14.2206 2.53887 14.1741C1.70799 14.0114 1.13276 13.5174 0.865483 12.7154C0.598206 11.925 0.760896 11.1928 1.30126 10.5535C1.37099 10.4721 1.45233 10.3966 1.52787 10.3152C4.57251 7.26998 7.62295 4.22473 10.6676 1.17367C11.1092 0.731995 11.5333 0.284506 12.1551 0.0869141C12.5153 0.11016 12.893 0.11016 13.2648 0.11016ZM16.4024 22.6066C16.5128 22.6066 16.5942 22.6066 16.6755 22.6066C17.5703 22.6066 18.4709 22.5834 19.3657 22.6125C20.1327 22.6415 20.7196 22.0952 20.7079 21.2642C20.6789 18.7303 20.6963 16.1965 20.6963 13.6685C20.6963 13.1106 20.9694 12.8432 21.533 12.8374C21.8526 12.8374 22.1721 12.8432 22.4917 12.8374C22.8461 12.8316 23.1309 12.5992 23.2296 12.2621C23.3458 11.8669 23.1541 11.5938 22.8926 11.3322C19.726 8.17077 16.5651 5.00929 13.4043 1.84781C12.9046 1.34802 12.4979 1.34802 12.004 1.842C9.18595 4.65479 6.36791 7.47338 3.54407 10.2978C3.15477 10.6872 2.75967 11.0765 2.37037 11.4717C2.12634 11.7274 2.06242 12.0296 2.20768 12.3551C2.34713 12.6689 2.60279 12.8316 2.9456 12.8316C3.23612 12.8316 3.52083 12.8316 3.81135 12.8316C4.45049 12.8316 4.70614 13.0815 4.70614 13.7208C4.70614 16.2604 4.70614 18.8001 4.70614 21.3397C4.70614 22.1068 5.19422 22.6008 5.96119 22.6008C6.89666 22.6008 7.83213 22.6008 8.7676 22.6008C8.84314 22.6008 8.91867 22.595 9.00583 22.5892C9.00583 22.473 9.00583 22.3858 9.00583 22.2928C9.00583 20.7121 8.9942 19.1313 9.01745 17.5448C9.03488 16.3011 10.0343 15.2085 11.2777 15.1272C12.2306 15.0633 13.1893 15.1156 14.148 15.1156C14.2177 15.1156 14.2875 15.133 14.3572 15.1446C15.5832 15.412 16.3966 16.4232 16.4082 17.6959C16.4199 19.2301 16.4082 20.7644 16.4082 22.2986C16.4024 22.3974 16.4024 22.4904 16.4024 22.6066Z" fill="black"/>
</svg>
