<svg width="26" height="24" viewBox="0 0 26 24" fill="none" xmlns="http://www.w3.org/2000/svg">
<path d="M25.4346 8.12566C25.3324 8.62577 25.257 9.13143 25.1172 9.62043C24.6814 11.1763 23.8799 12.5377 22.9599 13.8324C21.4752 15.9329 19.7268 17.7888 17.8977 19.567C16.456 20.9673 14.982 22.3287 13.5187 23.7012C13.0883 24.1069 12.7602 24.0958 12.319 23.6901C9.92511 21.4952 7.54194 19.2947 5.35244 16.872C3.96987 15.3383 2.66801 13.7324 1.67278 11.8931C1.04874 10.7373 0.54305 9.53152 0.456976 8.20345C0.25793 5.14169 1.38228 2.71894 3.94298 1.12971C6.70272 -0.576208 10.2371 -0.142781 12.6849 2.09103C12.7548 2.15771 12.8301 2.22439 12.9 2.28552C13.2712 1.99657 13.6263 1.6965 13.9975 1.43534C16.5743 -0.365051 19.985 -0.348381 22.4596 1.49646C24.1811 2.78007 25.1387 4.54711 25.3862 6.72536C25.3969 6.80871 25.4131 6.88651 25.4292 6.96986C25.4346 7.35327 25.4346 7.74225 25.4346 8.12566ZM12.9108 22.212C12.9485 22.1898 12.9754 22.1787 12.9915 22.1676C15.3316 20.0115 17.661 17.8444 19.7752 15.4439C21.0071 14.0492 22.1584 12.5933 23.0191 10.9151C23.6701 9.64821 24.0843 8.33126 23.9337 6.85872C23.627 3.93032 21.2546 1.6576 18.4034 1.62426C16.4829 1.60204 14.8744 2.35776 13.5725 3.81362C13.1368 4.29706 12.7171 4.30262 12.2921 3.81362C11.7165 3.15237 11.0441 2.64115 10.2694 2.25773C7.87548 1.07415 5.10497 1.55203 3.39425 3.53023C1.71581 5.48065 1.47373 7.70335 2.44744 10.0816C3.10914 11.6931 4.10975 13.0823 5.19643 14.4048C7.01474 16.6275 9.06437 18.6112 11.1409 20.5672C11.7273 21.1173 12.319 21.6675 12.9108 22.212Z" fill="black"/>
</svg>
