<svg width="22" height="22" viewBox="0 0 22 22" fill="none" xmlns="http://www.w3.org/2000/svg">
<path d="M22 11.3079C21.9668 11.4353 21.9391 11.5683 21.8948 11.6957C21.7729 12.0946 21.5513 12.4325 21.2578 12.7262C18.3664 15.6183 15.4751 18.5048 12.5837 21.3968C12.4619 21.5187 12.3345 21.6351 12.1905 21.7293C11.3264 22.3221 10.3958 21.901 10.2684 20.8594C10.2463 20.6821 10.2352 20.5048 10.2352 20.322C10.2352 18.6821 10.2352 17.0421 10.2352 15.4022C10.2352 15.3191 10.2352 15.236 10.2352 15.0864C9.61482 15.2083 9.0166 15.2803 8.44609 15.4465C5.28886 16.3773 3.09542 18.3718 1.89346 21.4412C1.73283 21.8456 1.48911 22.0395 1.15677 21.9897C0.885361 21.9509 0.708115 21.7847 0.613952 21.5243C0.148677 20.1669 -0.0618056 18.7763 0.0157403 17.3468C0.148676 14.898 0.98507 12.7096 2.57476 10.8369C4.41371 8.67065 6.75116 7.38529 9.57605 6.99746C9.76991 6.96976 9.95823 6.95314 10.1521 6.93098C10.1743 6.93098 10.1909 6.9199 10.2352 6.90328C10.2352 6.82571 10.2352 6.74261 10.2352 6.65396C10.2352 4.99186 10.2352 3.32975 10.2352 1.67319C10.2352 1.47373 10.2463 1.26874 10.2795 1.07483C10.3681 0.548494 10.6561 0.177291 11.1713 0C11.3153 0 11.4593 0 11.6033 0C11.9966 0.116347 12.3234 0.332421 12.6114 0.626059C15.4861 3.50704 18.3664 6.38803 21.2467 9.26347C21.5458 9.56265 21.7729 9.90061 21.8948 10.3106C21.9335 10.438 21.9612 10.571 21.9945 10.6984C22 10.909 22 11.1084 22 11.3079ZM11.5258 20.6212C11.6199 20.5381 11.6753 20.4938 11.7196 20.4439C14.5944 17.5685 17.4691 14.693 20.3438 11.8176C20.8368 11.3245 20.8368 10.6873 20.3494 10.1998C17.4691 7.3188 14.5888 4.43782 11.7086 1.55684C11.6642 1.51252 11.6089 1.47373 11.5202 1.39617C11.5202 1.53468 11.5202 1.62332 11.5202 1.70643C11.5202 3.62339 11.5202 5.54589 11.5202 7.46285C11.5202 7.94486 11.2821 8.18864 10.8002 8.20526C10.7558 8.20526 10.7171 8.20526 10.6728 8.2108C9.5982 8.2385 8.55687 8.44904 7.55431 8.83686C3.64378 10.3549 1.17339 14.078 1.29525 18.2665C1.30632 18.6267 1.35618 18.9868 1.38387 19.3469C1.4725 19.2915 1.50573 19.2361 1.54451 19.1807C1.98209 18.5879 2.36982 17.9563 2.86833 17.4133C4.97314 15.1307 7.59309 13.934 10.7005 13.8176C11.2654 13.7955 11.5202 14.0337 11.5202 14.6044C11.5202 16.5102 11.5202 18.4106 11.5202 20.3165C11.5258 20.3996 11.5258 20.4827 11.5258 20.6212Z" fill="black"/>
</svg>
