<svg width="16" height="16" viewBox="0 0 16 16" fill="none" xmlns="http://www.w3.org/2000/svg">
<path d="M11.5033 10.7291C11.555 10.7623 11.6215 10.7919 11.6696 10.8362C13.0368 12.1993 14.4041 13.566 15.7713 14.9328C15.9561 15.1175 16.0522 15.3244 15.9709 15.5829C15.8489 15.9819 15.3686 16.1296 15.0397 15.8711C14.9879 15.8304 14.9399 15.7787 14.8919 15.7307C13.5394 14.3787 12.1869 13.0267 10.8345 11.671C10.7864 11.623 10.7606 11.5565 10.7273 11.5048C7.80434 13.9207 3.68411 13.3555 1.47064 10.6404C-0.646745 8.04355 -0.458286 4.2757 1.91038 1.91156C4.28644 -0.459971 8.05561 -0.64467 10.6386 1.46828C13.3509 3.69205 13.9163 7.80344 11.5033 10.7291ZM1.18241 6.51794C1.17872 9.45834 3.57695 11.8557 6.51838 11.8557C9.45243 11.8557 11.8433 9.46942 11.8507 6.53641C11.858 3.59601 9.46721 1.19493 6.52577 1.19123C3.58434 1.18385 1.18611 3.57754 1.18241 6.51794Z" fill="#AFAFAF"/>
</svg>
