<svg width="23" height="23" viewBox="0 0 23 23" fill="none" xmlns="http://www.w3.org/2000/svg">
<path d="M12.2138 23C11.733 23 11.2571 23 10.7763 23C10.7267 22.9901 10.6771 22.9703 10.6276 22.9653C10.1021 22.891 9.57175 22.8364 9.05624 22.7324C4.59999 21.8403 0.902154 18.0042 0.178448 13.5289C0.109052 13.0927 0.0594827 12.6566 0 12.2205C0 11.7397 0 11.2639 0 10.7832C0.0644396 10.3272 0.109054 9.8663 0.188364 9.41034C1.43254 2.44205 8.81831 -1.75578 15.4804 0.712363C20.9379 2.73446 24.0211 8.47363 22.6926 14.1434C21.6467 18.6089 17.9737 22.0732 13.4827 22.8265C13.0564 22.8959 12.6351 22.9455 12.2138 23ZM4.59504 18.9261C4.90732 17.8605 5.41788 16.9337 6.13663 16.1209C6.86034 15.3081 7.73275 14.6936 8.74395 14.2574C6.13663 12.5079 5.81939 9.02376 7.65344 6.85299C9.39826 4.78133 12.4864 4.45918 14.5881 6.13931C15.6687 7.00167 16.3181 8.12671 16.4519 9.49955C16.6502 11.5018 15.8571 13.0729 14.2362 14.2525C16.328 15.1892 17.706 16.7355 18.3851 18.9013C20.8338 16.7355 22.4299 12.7706 21.2204 8.61736C20.0308 4.53352 16.2289 1.54499 11.961 1.36161C7.53943 1.17328 3.55904 3.7802 1.9778 7.94829C0.47586 11.9528 1.69526 16.2696 4.59504 18.9261ZM11.4702 21.6569C13.4827 21.642 15.3217 21.1018 17.0021 20.0313C17.1855 19.9123 17.2202 19.8033 17.1756 19.5951C16.4668 16.5868 13.6661 14.6836 10.5978 15.1346C8.23339 15.4865 6.31012 17.2955 5.79956 19.6398C5.76486 19.8083 5.79956 19.9074 5.95322 20.0065C7.63857 21.0919 9.48253 21.6371 11.4702 21.6569ZM15.1483 10.0645C15.1483 8.04741 13.5125 6.40694 11.495 6.41189C9.47757 6.41189 7.8418 8.04741 7.8418 10.0695C7.8418 12.0916 9.47262 13.7222 11.495 13.7222C13.5174 13.7122 15.1483 12.0817 15.1483 10.0645Z" fill="black"/>
</svg>
