<svg width="25" height="25" viewBox="0 0 25 25" fill="none" xmlns="http://www.w3.org/2000/svg">
<path d="M6.40417 9.36618C8.01453 9.36618 9.63128 9.36618 11.2416 9.36618C15.5871 9.36618 19.9261 9.36618 24.2715 9.36618C24.8402 9.36618 25 9.52579 25 10.0876C25 14.1481 25 18.2086 25 22.2755C25 23.597 24.214 24.6313 22.987 24.925C22.7698 24.9761 22.5333 24.9952 22.3097 24.9952C16.0983 25.0016 9.89328 25.0016 3.68189 24.9952C2.12904 24.9952 1.00435 23.8652 1.00435 22.3074C0.99796 18.5533 1.01713 14.7993 0.991567 11.0517C0.985177 10.5409 0.819029 10.0302 0.697613 9.52579C0.499513 8.68943 0.275853 7.85307 0.0649728 7.01671C-0.18425 6.01436 0.295026 5.21631 1.3047 4.98009C4.90245 4.12458 8.50659 3.27545 12.1107 2.42632C15.4273 1.64104 18.7439 0.855758 22.0604 0.0640917C23.0957 -0.178516 23.8625 0.274777 24.1309 1.30267C24.3993 2.32417 24.6677 3.34568 24.9425 4.36718C25.0767 4.87155 24.9425 5.09501 24.4313 5.20993C20.1497 6.18674 15.8682 7.15717 11.5867 8.13399C9.93162 8.51067 8.27014 8.88735 6.61505 9.25764C6.54476 9.27041 6.47446 9.29595 6.41055 9.3151C6.40416 9.34064 6.40417 9.35341 6.40417 9.36618ZM23.9328 14.6014C16.6351 14.6014 9.34372 14.6014 2.03319 14.6014C2.03319 14.6972 2.03319 14.7802 2.03319 14.8568C2.03319 17.3212 2.03319 19.7919 2.03319 22.2563C2.03319 23.3097 2.685 23.9609 3.73941 23.9609C9.90606 23.9609 16.0727 23.9609 22.2458 23.9609C22.4311 23.9609 22.6228 23.9418 22.8017 23.8971C23.5238 23.6992 23.9456 23.1054 23.9456 22.2755C23.9456 19.7983 23.9456 17.3275 23.9456 14.8504C23.9456 14.7674 23.9392 14.6908 23.9328 14.6014ZM13.7339 3.11584C14.6796 4.05435 15.5743 4.95455 16.4817 5.8356C16.5392 5.89306 16.6798 5.89944 16.7693 5.88029C17.2677 5.77814 17.7725 5.65683 18.271 5.5483C18.9867 5.3823 19.7024 5.21631 20.4309 5.05032C20.4054 5.00562 20.399 4.98647 20.3798 4.96732C19.4915 4.0735 18.5969 3.17968 17.7023 2.29225C17.6447 2.23479 17.5105 2.22202 17.4211 2.24118C16.8396 2.36886 16.2644 2.50932 15.6893 2.64978C15.0567 2.803 14.4304 2.95623 13.7339 3.11584ZM8.70469 4.30972C8.74942 4.36718 8.76859 4.39911 8.79415 4.42464C9.64406 5.27377 10.494 6.12928 11.3567 6.97202C11.4206 7.03587 11.5803 7.0614 11.6762 7.04225C12.7242 6.81241 13.7722 6.57619 14.8138 6.33997C14.98 6.30166 15.1525 6.25697 15.3698 6.20589C14.4368 5.27377 13.5358 4.37995 12.6347 3.49252C12.59 3.44783 12.4878 3.42229 12.4175 3.44144C11.1905 3.71597 9.96358 4.00966 8.70469 4.30972ZM3.61799 5.51638C4.5318 6.42935 5.40728 7.30401 6.28914 8.16591C6.34026 8.2106 6.4489 8.22337 6.52559 8.2106C7.31159 8.03822 8.09761 7.85946 8.88361 7.68069C9.33094 7.57854 9.77825 7.47639 10.2447 7.36786C10.2128 7.32316 10.2 7.29763 10.1872 7.27847C9.33093 6.42296 8.47463 5.56107 7.60555 4.71194C7.53526 4.6481 7.38189 4.62256 7.28604 4.64171C6.88984 4.71833 6.49364 4.82686 6.09744 4.91624C5.27947 5.12054 4.47429 5.31208 3.61799 5.51638ZM14.9097 13.516C14.9672 13.5224 15.0055 13.5288 15.0439 13.5288C16.2836 13.5288 17.5233 13.5288 18.7567 13.5352C18.9164 13.5352 18.9675 13.4586 19.025 13.3437C19.4788 12.4307 19.9325 11.5241 20.3862 10.6175C20.4181 10.5537 20.4373 10.4898 20.4757 10.4068C19.1592 10.4068 17.8684 10.4068 16.584 10.4132C16.5073 10.4132 16.405 10.509 16.3667 10.5856C15.9002 11.4986 15.4465 12.4179 14.9864 13.3309C14.9608 13.382 14.9416 13.4458 14.9097 13.516ZM10.0658 10.4068C8.72385 10.4068 7.43301 10.4068 6.14217 10.4132C6.07187 10.4132 5.97602 10.5026 5.94406 10.5792C5.47118 11.5113 5.00469 12.4498 4.5318 13.3884C4.51263 13.4267 4.50624 13.4714 4.48707 13.5352C5.79709 13.5352 7.09433 13.5352 8.38517 13.5288C8.44907 13.5288 8.53853 13.4522 8.57687 13.3884C8.79414 12.9734 9.00502 12.5456 9.2159 12.1242C9.4843 11.5624 9.76547 11.007 10.0658 10.4068ZM15.2739 10.4196C15.2036 10.4132 15.1717 10.4068 15.1397 10.4068C13.8936 10.4068 12.6475 10.4068 11.4014 10.4005C11.2608 10.4005 11.2033 10.4579 11.1458 10.5728C10.6857 11.4986 10.2256 12.4179 9.75909 13.3437C9.73352 13.3947 9.72074 13.4522 9.69518 13.5288C11.0116 13.5288 12.3024 13.5288 13.5869 13.5224C13.6572 13.5224 13.753 13.4394 13.7914 13.3628C13.9639 13.05 14.1173 12.7244 14.277 12.4052C14.6093 11.7603 14.9352 11.1027 15.2739 10.4196ZM18.7886 1.91557C19.7535 2.87323 20.6737 3.79259 21.6003 4.70556C21.6387 4.74386 21.7345 4.75663 21.7921 4.74386C22.1499 4.67363 22.5078 4.59064 22.8656 4.50764C23.1851 4.43741 23.511 4.3608 23.837 4.28419C23.5877 3.32652 23.3449 2.40079 23.0957 1.47505C23.0062 1.14944 22.7698 0.983446 22.4566 1.06006C21.2489 1.33459 20.0475 1.62189 18.7886 1.91557ZM23.9328 13.516C23.9328 12.469 23.9328 11.4475 23.9328 10.4005C23.837 10.4005 23.7603 10.4005 23.6772 10.4005C23.0829 10.4005 22.4886 10.4068 21.8943 10.3941C21.7218 10.3941 21.6387 10.4451 21.562 10.5984C21.1211 11.505 20.661 12.3988 20.2136 13.299C20.1817 13.3628 20.1561 13.4267 20.1178 13.5097C21.4023 13.516 22.6548 13.516 23.9328 13.516ZM1.71368 9.30872C2.86393 9.04696 3.98863 8.79158 5.14527 8.52982C5.06859 8.44682 5.01108 8.38298 4.95995 8.3319C4.31453 7.68708 3.63716 7.07417 3.03647 6.39104C2.61471 5.90583 2.19295 5.71429 1.59865 6.00159C1.56031 6.02075 1.51557 6.01436 1.47723 6.02713C1.11937 6.1229 0.959618 6.3655 1.04908 6.72303C1.26635 7.56577 1.49002 8.40851 1.71368 9.30872ZM2.05236 13.5288C2.41661 13.5288 2.76169 13.5224 3.10037 13.5352C3.24735 13.5416 3.31765 13.4841 3.37516 13.3564C3.82887 12.4371 4.28897 11.5241 4.74269 10.6111C4.77464 10.5537 4.79381 10.4898 4.81937 10.4196C3.87999 10.4196 2.97257 10.4196 2.05236 10.4196C2.05236 11.4539 2.05236 12.4754 2.05236 13.5288Z" fill="black"/>
</svg>
